<?xml version="1.0" encoding="UTF-8"?>
<svg id="Layer_1" xmlns="http://www.w3.org/2000/svg" version="1.1" viewBox="0 0 426.87 416.18">
  <!-- Generator: Adobe Illustrator 29.4.0, SVG Export Plug-In . SVG Version: 2.1.0 Build 152)  -->
  <defs>
    <style>
      .st0 {
        fill: #f04a41;
      }
    </style>
  </defs>
  <path class="st0" d="M402.65,268.2l24.22-.56-21.08-10.76c3.8-15.29,5.85-31.27,5.85-47.72,0-42.57-13.53-82.01-36.46-114.34l9.42-12.39-13.9,6.3C334.97,42.19,279.1,11.91,216.22,11.03l-2.79-11.03-2.79,11.03c-62.88.88-118.75,31.15-154.48,77.7l-13.9-6.3,9.42,12.39C28.77,127.16,15.24,166.6,15.24,209.16c0,16.45,2.05,32.43,5.85,47.72l-21.08,10.76,24.22.56c16.12,51.55,52.78,94.07,100.34,118.03l-6.11,29.94,19.79-23.67c23.2,9.55,48.59,14.86,75.2,14.86s51.99-5.31,75.2-14.86l19.79,23.67-6.11-29.94c47.55-23.97,84.22-66.49,100.34-118.03ZM397.48,209.16c0,14.13-1.65,27.87-4.68,41.09l-97.69-49.86.1-.12-.14-.07,71.14-93.57c19.74,29.32,31.28,64.6,31.28,102.53ZM289.32,376.77l-69.03-82.57,18.33-22.98h29.39l21.52,105.46c-.07.03-.14.06-.21.09ZM137.34,376.67l21.52-105.46h29.39l18.33,22.98-69.03,82.57c-.07-.03-.14-.06-.21-.09ZM239.91,148.14l-26.48,12.75-26.48-12.75,26.48-104.8,26.48,104.8ZM258.81,182.75l-6.55-28.66,98.45-44.64-65.42,86.05-26.48-12.75ZM261.83,195.98l16.76,8.07-11.6,14.55-5.16-22.62ZM193.37,260.6l-25.02-31.38,8.93-39.12,36.16-17.41,36.16,17.41,8.93,39.13-25.02,31.37h-40.13ZM225.03,271.21l-11.6,14.54-11.6-14.54h23.2ZM159.88,218.6l-11.59-14.54,16.76-8.07-5.16,22.61ZM165.32,242.46l14.47,18.14h-18.61l4.14-18.14ZM180.3,176.85l4.14-18.14,16.76,8.07-20.9,10.06ZM225.67,166.79l16.76-8.07,4.13,18.14-20.9-10.06ZM261.55,242.46l4.14,18.14h-18.6l14.46-18.14ZM168.06,182.75l-26.48,12.75-65.42-86.05,98.45,44.64-6.55,28.66ZM156.86,231.84l-6.54,28.66-108.06-2.5,96.28-49.14,18.32,22.98ZM270.02,231.84l18.33-22.98,96.28,49.14-108.06,2.5-6.54-28.66ZM357.43,94.75l-107.58,48.78-.04-.15-.13.06-29.86-118.15c55.66,1.91,105.1,28.64,137.61,69.47ZM207.05,25.28l-29.86,118.15-.13-.06-.04.15-107.58-48.78C101.94,53.92,151.38,27.19,207.05,25.28ZM29.39,209.16c0-37.93,11.54-73.21,31.28-102.53l71.15,93.57-.14.07.1.12-97.7,49.86c-3.03-13.22-4.68-26.96-4.68-41.09ZM39.28,268.55l108.62,2.51-.03.15h.16l-20.53,100.62c-41.1-21.8-72.97-58.71-88.21-103.29ZM213.44,393.21c-23.12,0-45.23-4.33-65.63-12.14l65.54-78.4.1.12.1-.12,65.54,78.4c-20.4,7.82-42.52,12.14-65.63,12.14ZM299.38,371.84l-20.53-100.62h.16l-.03-.15,108.62-2.51c-15.24,44.58-47.11,81.49-88.21,103.29Z"/>
</svg>